<svg width="106" height="60" viewBox="0 0 106 60" fill="none" xmlns="http://www.w3.org/2000/svg">
<g clip-path="url(#clip0_2_2)">
<path d="M103.999 26.8063C102.672 23.9146 100.88 21.4338 98.6295 19.3556C96.3709 17.2775 93.7507 15.6665 90.7446 14.5066C87.7466 13.3548 84.6039 12.7749 81.3165 12.7749C78.0291 12.7749 74.8221 13.3548 71.8562 14.5066C68.8743 15.6585 66.2701 17.2775 64.0115 19.3556C61.761 21.4338 59.9686 23.9146 58.6424 26.8063C58.5299 27.056 58.4254 27.3057 58.3209 27.5634V13.6045H29.2006V26.8304H15.7859V13.5159H29.2006V0H0V59.0818H15.7778V39.9033H29.1926V26.9029H42.535V59.1704H58.3129V45.1551C58.4174 45.4128 58.5218 45.6625 58.6344 45.9122C59.9606 48.7958 61.761 51.2928 64.0035 53.3951C66.2621 55.5054 68.8662 57.1164 71.8482 58.2763C74.8141 59.4201 77.9729 60 81.3085 60C84.6441 60 87.7466 59.4201 90.7366 58.2763C93.7346 57.1164 96.3549 55.5054 98.6215 53.3951C100.872 51.2928 102.664 48.7958 103.991 45.9122C105.317 43.0125 105.984 39.8308 105.984 36.3592C105.984 32.8876 105.317 29.6979 103.991 26.8063M90.2624 40.443C89.8283 41.6915 89.2014 42.7789 88.3896 43.681C87.5617 44.6073 86.557 45.3242 85.3755 45.8558C84.202 46.3955 82.8597 46.6613 81.3165 46.6613C79.7733 46.6613 78.423 46.3955 77.2575 45.8558C76.076 45.3162 75.0713 44.5993 74.2514 43.681C73.4396 42.7789 72.8127 41.6915 72.3787 40.443C71.9527 39.1945 71.7357 37.8494 71.7357 36.4237C71.7357 34.998 71.9527 33.6528 72.3787 32.3963C72.8127 31.1559 73.4396 30.0765 74.2514 29.1502C75.0713 28.24 76.084 27.5232 77.2575 27.0077C78.431 26.4921 79.7733 26.2263 81.3165 26.2263C82.8597 26.2263 84.202 26.4921 85.3755 27.0077C86.557 27.5312 87.5617 28.24 88.3896 29.1502C89.2014 30.0685 89.8283 31.1559 90.2624 32.3963C90.6884 33.6528 90.9054 34.998 90.9054 36.4237C90.9054 37.8494 90.6884 39.1945 90.2624 40.443Z" fill="#EA6D0B"/>
<path d="M54.2137 3.44749C54.1655 3.44749 54.1333 3.47971 54.1333 3.52804V8.66698C54.1333 8.71531 54.1655 8.74753 54.2137 8.74753H55.4274C55.4756 8.74753 55.5078 8.71531 55.5078 8.66698V6.758C55.5078 6.758 55.5238 6.70967 55.556 6.70967H57.3001C57.3484 6.70967 57.3805 6.67745 57.3805 6.62912V5.64644C57.3805 5.59811 57.3484 5.56589 57.3001 5.56589H55.556C55.556 5.56589 55.5078 5.54978 55.5078 5.51756V4.64765C55.5078 4.64765 55.5238 4.59932 55.556 4.59932H57.6779C57.7261 4.59932 57.7583 4.5671 57.7583 4.51877V3.51193C57.7583 3.4636 57.7261 3.43138 57.6779 3.43138H54.2217L54.2137 3.44749ZM48.1614 3.35889C47.229 3.35889 46.4574 3.79384 46.1841 4.6557C46.0555 5.05844 46.0314 5.37258 46.0314 6.09751C46.0314 6.82244 46.0636 7.13657 46.1841 7.53931C46.4654 8.40117 47.229 8.83613 48.1614 8.83613C49.0937 8.83613 49.8654 8.40117 50.1386 7.53931C50.2672 7.13657 50.2913 6.82244 50.2913 6.09751C50.2913 5.37258 50.2672 5.0665 50.1386 4.6557C49.8573 3.79384 49.0937 3.35889 48.1614 3.35889ZM48.8365 7.14463C48.7401 7.44266 48.507 7.6118 48.1614 7.6118C47.8158 7.6118 47.5827 7.44266 47.4862 7.14463C47.4219 6.96742 47.4058 6.72578 47.4058 6.08945C47.4058 5.45313 47.4219 5.21954 47.4862 5.04233C47.5827 4.75236 47.8158 4.57516 48.1614 4.57516C48.507 4.57516 48.7401 4.75236 48.8365 5.04233C48.9008 5.21954 48.9169 5.46118 48.9169 6.08945C48.9169 6.71773 48.9008 6.95937 48.8365 7.14463ZM65.3699 3.47165C65.3699 3.47165 65.3378 3.44749 65.3136 3.44749H61.2386C61.2386 3.44749 61.1823 3.48776 61.1823 3.52804V4.58321C61.1823 4.58321 61.1823 4.61543 61.1823 4.63154C61.1903 4.63154 61.1903 4.63154 61.1903 4.63154C61.1903 4.63154 61.2064 4.6557 61.2225 4.6557H62.5487C62.5487 4.6557 62.5889 4.67987 62.5889 4.70403V8.67504C62.5889 8.67504 62.5889 8.6992 62.605 8.70725C62.621 8.72336 62.6291 8.73142 62.6452 8.73142H63.8829C63.8829 8.73142 63.9151 8.73142 63.9231 8.72336C63.9472 8.70725 63.9473 8.6992 63.9633 8.67504V4.67181C63.9633 4.67181 63.9633 4.6557 63.9794 4.6557C63.9794 4.6557 63.9955 4.6557 64.0115 4.6557H65.3217C65.3217 4.6557 65.3538 4.64765 65.3619 4.63959C65.3779 4.62348 65.386 4.59932 65.386 4.57516V3.51998C65.386 3.51998 65.386 3.48776 65.3699 3.47971C65.3699 3.47165 65.3619 3.4636 65.3619 3.4636M40.6623 5.45313L40.381 5.41285C39.8746 5.34841 39.7058 5.20343 39.7058 4.96984C39.7058 4.71209 39.8987 4.52683 40.2926 4.52683C40.7105 4.52683 41.1044 4.67181 41.4821 4.92151C41.5223 4.94568 41.5625 4.93762 41.5947 4.89735L42.1734 4.0516C42.2055 4.00327 42.1975 3.96299 42.1573 3.93077C41.6831 3.57636 40.9999 3.35083 40.2684 3.35083C39.0708 3.35083 38.3073 4.01132 38.3073 5.00206C38.3073 5.9928 38.9262 6.50025 40.0675 6.6694L40.3488 6.70967C40.8713 6.78216 41.0159 6.92715 41.0159 7.15268C41.0159 7.45071 40.7587 7.65208 40.2684 7.65208C39.738 7.65208 39.2477 7.40238 38.9262 7.12046C38.894 7.08825 38.8458 7.08825 38.8136 7.12046L38.1144 7.94205C38.0742 7.98232 38.0822 8.03065 38.1144 8.06287C38.5082 8.4495 39.3763 8.82002 40.2443 8.82002C41.659 8.82002 42.3984 8.10315 42.3984 7.12046C42.3984 6.13778 41.8117 5.60617 40.6543 5.43702M90.391 6.62912C90.9536 6.34721 91.259 5.81559 91.259 5.14704C91.259 4.14825 90.5678 3.43943 89.3541 3.43943H87.2001C87.1518 3.43943 87.1197 3.47165 87.1197 3.51998V8.65893C87.1197 8.70725 87.1518 8.73947 87.2001 8.73947H88.4137C88.462 8.73947 88.4941 8.70725 88.4941 8.65893V6.90298C88.4941 6.90298 88.5102 6.85466 88.5423 6.85466H89.0487L89.8525 8.65893C89.8766 8.71531 89.8926 8.73947 89.965 8.73947H91.3073C91.3635 8.73947 91.3876 8.69114 91.3635 8.65087L90.391 6.63718V6.62912ZM89.2738 5.72699H88.5423C88.5423 5.72699 88.4941 5.71088 88.4941 5.67866V4.64765C88.4941 4.64765 88.5102 4.59932 88.5423 4.59932H89.2738C89.6596 4.59932 89.8926 4.8168 89.8926 5.16315C89.8926 5.50951 89.6596 5.71893 89.2738 5.71893M96.5317 4.60737H98.6536C98.6938 4.60737 98.726 4.57516 98.726 4.52683V3.51998C98.726 3.47165 98.6938 3.43943 98.6536 3.43943H95.1975C95.1492 3.43943 95.1171 3.47165 95.1171 3.51998V8.65893C95.1171 8.70725 95.1492 8.73947 95.1975 8.73947H98.6536C98.6938 8.73947 98.726 8.70725 98.726 8.65893V7.65208C98.726 7.60375 98.6938 7.57153 98.6536 7.57153H96.5317C96.5317 7.57153 96.4835 7.55542 96.4835 7.5232V6.67745C96.4835 6.67745 96.4996 6.62912 96.5317 6.62912H98.2759C98.3241 6.62912 98.3563 6.5969 98.3563 6.54858V5.56589C98.3563 5.51756 98.3241 5.4934 98.2759 5.4934H96.5317C96.5317 5.4934 96.4835 5.47729 96.4835 5.44507V4.64765C96.4835 4.64765 96.4996 4.59932 96.5317 4.59932M81.638 3.44749H80.3681C80.3118 3.44749 80.2877 3.47971 80.2636 3.52804L78.4391 8.66698C78.423 8.71531 78.4471 8.74753 78.4953 8.74753H79.7733C79.8296 8.74753 79.8537 8.71531 79.8698 8.66698L80.1189 7.84539H81.839L82.0881 8.66698C82.1042 8.71531 82.1364 8.74753 82.1846 8.74753H83.4626C83.5108 8.74753 83.5349 8.71531 83.5188 8.66698L81.7345 3.52804C81.7184 3.47971 81.6862 3.44749 81.63 3.44749M80.4726 6.70967L80.987 5.05844H81.0111L81.5014 6.70967H80.4806H80.4726ZM74.2354 3.44749C74.1791 3.44749 74.155 3.47971 74.1389 3.52804L73.4799 6.60496H73.4638L72.6198 3.52804C72.6038 3.47165 72.5716 3.44749 72.5234 3.44749H71.7196C71.6634 3.44749 71.6312 3.47165 71.6232 3.52804L70.7953 6.60496H70.7792L70.096 3.52804C70.088 3.47971 70.0558 3.44749 69.9915 3.44749H68.7216C68.6653 3.44749 68.6492 3.47971 68.6573 3.52804L70.096 8.66698C70.1121 8.72336 70.1442 8.74753 70.2005 8.74753H71.1731C71.2293 8.74753 71.2615 8.72336 71.2775 8.66698L72.1135 5.71088H72.1295L72.9654 8.66698C72.9815 8.72336 73.0137 8.74753 73.0699 8.74753H74.0425C74.1068 8.74753 74.1389 8.72336 74.155 8.66698L75.5857 3.52804C75.6018 3.47971 75.5777 3.44749 75.5294 3.44749H74.2595H74.2354Z" fill="#000A57"/>
</g>
<defs>
<clipPath id="clip0_2_2">
<rect width="106" height="60" fill="white"/>
</clipPath>
</defs>
</svg>
